<svg xmlns="http://www.w3.org/2000/svg" width="29.433" height="34.745" viewBox="0 0 29.433 34.745">
  <g id="Search_and_cart" data-name="Search and cart" transform="translate(-6.277 -1)">
    <circle id="Ellipse_1" data-name="Ellipse 1" cx="8.5" cy="8.5" r="8.5" transform="translate(18.71 1)" fill="#ff5235" opacity="0.6"/>
    <text id="_1" data-name="1" transform="translate(25.21 13)" font-size="10" font-family="Montserrat-Medium, Montserrat" font-weight="500"><tspan x="0" y="0">1</tspan></text>
    <path id="cart-shopping-solid" d="M3.168,0a.8.8,0,0,1,.779.646L4,1.06H17.879A1.074,1.074,0,0,1,18.9,2.408L17.113,8.771a1.057,1.057,0,0,1-1.016.772H5.633l.3,1.591H16.1a.8.8,0,0,1,0,1.591H5.25a.789.789,0,0,1-.749-.646L2.513,1.591H.792A.8.8,0,0,1,.792,0ZM4.224,15.375a1.584,1.584,0,1,1,1.584,1.591A1.588,1.588,0,0,1,4.224,15.375Zm12.672,0a1.584,1.584,0,1,1-1.584-1.591A1.588,1.588,0,0,1,16.9,15.375Z" transform="translate(6.277 18.779)"/>
  </g>
</svg>
